PathFileType	4	(X/Y/Z)	C:\Users\willi\Desktop\Data_PaperCallum_v2\17_Akif\Gait03\marker_experimental_temp.trc
DataRate	CameraRate	NumFrames	NumMarkers	Units	OrigDataRate	OrigDataStartFrame	OrigNumFrames
100.000000	100.000000	7	27	mm	100.000000	39	158
Frame#	Time	C7			T10			Clav			Sternum			Right_Back			PCL_CRAN			PCL_RECHTS			PCL_LINKS			RCL_UL_CRAN			RCL_UL_POST			RCL_UL_ANT			RCL_LL_CRAN			RCL_LL_POST			RCL_LL_ANT			Right_Heel			Right_Toe			Right_M5			LCL_UL_CRAN			LCL_UL_POST			LCL_UL_ANT			LCL_LL_CRAN			LCL_LL_POST			LCL_LL_ANT			Left_Heel			Left_Toe			Left_M5			*26			
		X1	Y1	Z1	X2	Y2	Z2	X3	Y3	Z3	X4	Y4	Z4	X5	Y5	Z5	X6	Y6	Z6	X7	Y7	Z7	X8	Y8	Z8	X9	Y9	Z9	X10	Y10	Z10	X11	Y11	Z11	X12	Y12	Z12	X13	Y13	Z13	X14	Y14	Z14	X15	Y15	Z15	X16	Y16	Z16	X17	Y17	Z17	X18	Y18	Z18	X19	Y19	Z19	X20	Y20	Z20	X21	Y21	Z21	X22	Y22	Z22	X23	Y23	Z23	X24	Y24	Z24	X25	Y25	Z25	X26	Y26	Z26	X27	Y27	Z27	

40	0.39	886.5682373046874	1411.643188476563	186.7816162109374	930.5031127929686	1194.000244140625	191.3749237060546	748.1386108398436	1333.783081054688	204.1499633789062	693.3835449218749	1169.64453125	221.7740478515625	912.5488281249999	1347.35791015625	70.57823944091791	925.3795776367186	1022.880798339844	193.6236724853515	935.7005004882811	964.4296264648439	168.8278503417968	936.7467651367186	962.8170776367189	219.4971008300781	828.4830932617188	723.7993774414063	38.70017242431636	851.1289672851563	663.4375610351563	48.14778900146479	801.1008911132813	664.3291015625	43.76232910156245	916.2235107421875	376.9750976562501	85.59289550781244	948.8031616210938	320.1589965820313	84.84912872314447	898.9768676757813	313.5488281250001	90.71647644042963	1017.623779296875	36.82198715209967	183.3943328857421	816.4906005859375	33.99269866943364	184.2657318115234	860.8026733398438	11.75350856781011	124.6731491088867	763.3505859375	762.7318725585938	380.5315856933593	752.2675170898438	698.366943359375	378.1700744628906	710.132568359375	723.5521240234375	382.0533142089843	704.3138427734375	403.4093627929688	372.2905273437499	736.4845581054688	346.6671752929688	368.7569274902343	686.08837890625	340.2247924804688	369.8234558105468	817.5613403320313	63.98960876464849	281.4382934570312	626.7990112304688	52.79350662231449	330.4658508300781	677.3819580078125	34.91880798339848	374.7000427246093	nan	nan	nan	
41	0.4	872.5267333984374	1409.959594726563	186.8407287597656	916.8205566406249	1192.44970703125	191.9028320312499	734.1739501953124	1331.981811523438	204.4996032714843	679.5214843749999	1167.76318359375	221.8294677734375	898.2677001953124	1345.692993164063	70.41206359863276	912.0596923828124	1021.185424804688	195.1738891601562	922.6092529296874	962.7660522460938	170.3719329833984	923.2651977539061	961.089111328125	221.0321350097656	819.3397216796875	722.7481689453125	39.14313507080073	842.9026489257813	662.7383422851563	48.62632751464839	792.8538208007813	662.8975219726563	44.09603118896479	912.1714477539063	377.1841430664063	86.22592163085932	945.3619995117188	320.7647399902344	85.51734924316401	895.6302490234375	313.5134582519532	91.13816070556635	1017.411804199219	37.61173248291022	184.2965850830078	816.3306274414063	33.88583755493169	184.2198181152343	860.9219970703125	11.78862190246587	124.7184753417968	748.26806640625	761.1967163085938	380.1019592285156	736.192138671875	697.049072265625	377.5044860839843	694.3767700195313	722.560546875	380.6904907226562	682.3319702148438	400.1026000976563	370.2664489746093	710.5919189453125	341.3463745117188	367.3561706542968	659.8956298828125	338.3093261718751	367.8243103027343	770.0028686523438	53.00547027587896	281.0089111328124	578.7925415039063	55.17122650146488	329.4609069824218	627.7960205078125	33.40665054321293	373.7434692382812	nan	nan	nan	
42	0.41	858.4370727539061	1408.07275390625	186.9751586914062	903.0422973632811	1190.68994140625	192.5458679199218	720.1325683593749	1329.997314453125	204.8945007324218	665.5563964843749	1165.703857421875	221.9263610839843	883.9725952148436	1343.807739257813	70.33941650390619	898.6203002929686	1019.256164550781	196.8308563232421	909.3804321289061	960.8786010742188	171.9938049316406	909.6336059570311	959.1094360351563	222.6390075683593	810.0377197265625	721.651611328125	39.49486160278315	834.435302734375	661.9967651367188	49.03915023803706	784.4011840820313	661.4703979492188	44.24166488647456	907.7086791992188	377.3665771484376	86.79001617431635	941.599365234375	321.3841552734376	86.18141937255854	891.9644775390625	313.4638366699219	91.51255035400385	1017.175415039063	38.52313613891608	185.1385803222656	816.17578125	33.77643585205083	184.1631622314453	861.0708618164063	11.83185577392583	124.7665863037109	733.575439453125	759.1583251953125	379.6647338867187	720.826904296875	695.1592407226563	376.5465393066406	679.2499389648438	720.884765625	379.3630981445312	660.9309692382813	396.7110595703126	368.1992797851562	685.1563720703125	336.1919555664063	365.8856201171874	634.4067993164063	336.5693969726563	365.9435424804687	722.2699584960938	43.91169357299809	280.4644165039062	531.402099609375	59.07073211669925	328.0175781249999	578.46826171875	33.33895492553714	372.3686828613281	nan	nan	nan	
43	0.42	844.2940673828124	1406.010375976563	187.1900939941406	889.1544799804686	1188.743286132813	193.2955322265624	706.0092163085936	1327.860717773438	205.3364105224609	651.4787597656249	1163.499389648438	222.0640106201172	869.6614990234374	1341.731323242188	70.36431884765619	885.0383300781249	1017.120178222656	198.5698699951171	895.9875488281249	958.7904663085938	173.6788330078124	895.8312377929686	956.909912109375	224.303237915039	800.5496826171875	720.5211791992188	39.75662994384761	825.7074584960938	661.2250366210938	49.38268661499018	775.7135620117188	660.0528564453125	44.24118804931636	902.8499755859375	377.5320434570313	87.26751708984369	937.5796508789063	322.0501098632813	86.83930969238276	888.0288696289063	313.4141540527344	91.83003997802729	1016.911193847656	39.59989166259772	185.8716888427734	816.0355224609375	33.6663208007813	184.0917968749999	861.2478637695313	11.88196849823003	124.817153930664	719.2221069335938	756.6475219726563	379.2765502929687	706.2423095703125	692.7032470703125	375.4211425781249	664.7708740234375	718.509033203125	378.1632995605468	640.0784301757813	393.3236389160157	366.0863037109374	660.2169189453125	331.3218078613282	364.3067932128906	609.6669921875	335.0587158203126	364.1743469238281	674.9329223632813	36.83521270751957	279.7312622070312	485.1372985839844	64.50447082519534	326.2480773925781	529.9765014648438	34.82566070556644	370.6396484374999	nan	nan	nan	
44	0.43	830.0931396484374	1403.803100585938	187.4911956787109	875.1431274414061	1186.634887695313	194.1416778564453	691.7990112304686	1325.606811523438	205.8265075683593	637.2787475585936	1161.186401367188	222.2406616210937	855.3330078124999	1339.495483398438	70.49183654785151	871.2891235351561	1014.809387207031	200.3619842529296	882.4038085937499	956.5294799804688	175.4094848632812	881.8374023437499	954.5278930664063	226.0076446533203	790.8473510742188	719.36572265625	39.93340682983393	816.7032470703125	660.4310302734375	49.64562225341792	766.7639770507813	658.6423950195313	44.13867187499995	897.60205078125	377.6883850097657	87.64089965820307	933.32373046875	322.7868652343751	87.45854187011713	883.843017578125	313.3721008300782	92.08026123046869	1016.613952636719	40.88282394409186	186.4465026855468	815.9169311523438	33.55657196044927	184.0054321289062	861.4451904296875	11.93598365783697	124.8697891235351	705.1198120117188	753.7216186523438	378.9978942871093	692.4305419921875	689.72705078125	374.3371887207031	650.8886108398438	715.461669921875	377.1998596191406	619.728271484375	390.0159301757813	363.9265747070312	635.80859375	326.8299255371094	362.5898132324218	585.6911010742188	333.8114624023438	362.4908752441406	628.6510620117188	31.75086212158207	278.7360229492187	440.5659484863281	71.34048461914065	324.24609375	482.9822387695313	37.85196685791018	368.6130981445312	nan	nan	nan	
45	0.44	815.8299560546874	1401.484130859375	187.8843383789062	860.9946899414061	1184.39208984375	195.0727844238281	677.4976196289061	1323.2724609375	206.3653869628906	622.9458618164061	1158.80419921875	222.4536895751953	840.9863281249999	1337.134887695313	70.72789001464838	857.3472900390624	1012.360473632813	202.1747589111328	868.6027832031249	954.12841796875	177.1655273437499	867.6328124999999	952.0064086914063	227.7324218749999	780.9024658203125	718.1915893554688	40.03378677368159	807.4068603515625	659.6170043945313	49.81531143188472	757.5283203125	657.2310180664063	43.96654891967768	891.9609375	377.8415832519532	87.89540863037104	928.7999267578125	323.6039428710938	87.98159790039057	879.390380859375	313.3393859863282	92.24855804443354	1016.276123046875	42.40892410278327	186.8204193115234	815.8221435546875	33.4481925964356	183.9075775146484	861.6494140625	11.99137401580816	124.923110961914	691.1434936523438	750.465087890625	378.8825073242187	679.2813110351563	686.320556640625	373.5480651855468	637.469970703125	711.8258056640625	376.5835876464843	599.828857421875	386.8469238281251	361.7248229980468	611.9691162109375	322.7789001464844	360.7214660644531	562.4667358398438	332.8383789062501	360.8518066406249	584.142578125	28.4713344573975	277.4173583984374	398.2743835449219	79.27790069580081	322.0562744140625	438.1803894042969	42.24268341064456	366.322265625	nan	nan	nan	
46	0.45	801.5006103515624	1399.089233398438	188.3752746582031	846.6966552734374	1182.044921875	196.0763244628906	663.1009521484374	1320.896850585938	206.9530487060547	608.4695434570311	1156.394409179688	222.6998748779297	826.6210327148436	1334.685913085938	71.07897949218744	843.1879272460936	1009.81494140625	203.9733123779296	854.5595092773436	951.6248168945313	178.9244689941406	853.2000732421874	949.393310546875	229.4556579589843	770.6873779296875	717.0038452148438	40.0701293945312	797.8004150390625	658.7804565429688	49.88639068603511	747.9857177734375	655.8096923828125	43.73897933959957	885.9161376953125	377.9971313476563	88.02241516113276	923.93896484375	324.4973144531251	88.34300994873041	874.6270751953125	313.3153991699219	92.31779479980463	1015.888305664063	44.21292877197272	186.9649200439453	815.7476806640625	33.34294891357427	183.8042907714843	861.842529296875	12.04804897308355	124.9741287231445	677.1397705078125	746.9859619140625	378.9662475585937	666.5708618164063	682.6143798828125	373.2896118164062	624.3009033203125	707.742431640625	376.4054565429687	580.3333129882813	383.8562622070313	359.4933776855468	588.7490234375	319.1947937011719	358.7126159667968	539.9669189453125	332.1198730468751	359.2051696777343	542.1446533203125	26.65864753723148	275.7356567382812	358.824951171875	87.8449630737305	319.6565856933594	396.2427368164063	47.64270782470705	363.7654418945313	nan	nan	nan	
